<svg width="24" height="24" viewBox="0 0 24 24" fill="none" xmlns="http://www.w3.org/2000/svg">
<path fill-rule="evenodd" clip-rule="evenodd" d="M10.7574 2.75734C11.8826 1.63213 13.4087 0.999985 15 0.999985H18C18.5523 0.999985 19 1.4477 19 1.99998V5.99998C19 6.55227 18.5523 6.99998 18 6.99998H15V8.99998H18C18.3079 8.99998 18.5987 9.14186 18.7882 9.38457C18.9777 9.62729 19.0448 9.94378 18.9701 10.2425L17.9701 14.2425C17.8589 14.6877 17.4589 15 17 15H15V22C15 22.5523 14.5523 23 14 23H10C9.44772 23 9 22.5523 9 22V15H7C6.44772 15 6 14.5523 6 14V9.99998C6 9.4477 6.44772 8.99998 7 8.99998H9V6.99998C9 5.40869 9.63214 3.88256 10.7574 2.75734ZM15 2.99998C13.9391 2.99998 12.9217 3.42141 12.1716 4.17156C11.4214 4.9217 11 5.93912 11 6.99998V9.99998C11 10.5523 10.5523 11 10 11H8V13H10C10.5523 13 11 13.4477 11 14V21H13V14C13 13.4477 13.4477 13 14 13H16.2192L16.7192 11H14C13.4477 11 13 10.5523 13 9.99998V6.99998C13 6.46955 13.2107 5.96084 13.5858 5.58577C13.9609 5.2107 14.4696 4.99998 15 4.99998H17V2.99998H15Z" fill="#351808"/>
</svg>
