<svg width="24" height="24" viewBox="0 0 24 24" fill="none" xmlns="http://www.w3.org/2000/svg">
<path fill-rule="evenodd" clip-rule="evenodd" d="M7 2.99998C4.79086 2.99998 3 4.79085 3 6.99998V17C3 19.2091 4.79086 21 7 21H17C19.2091 21 21 19.2091 21 17V6.99998C21 4.79085 19.2091 2.99998 17 2.99998H7ZM1 6.99998C1 3.68628 3.68629 0.999985 7 0.999985H17C20.3137 0.999985 23 3.68628 23 6.99998V17C23 20.3137 20.3137 23 17 23H7C3.68629 23 1 20.3137 1 17V6.99998Z" fill="#351808"/>
<path fill-rule="evenodd" clip-rule="evenodd" d="M12.4833 8.98923C11.8591 8.89667 11.2217 9.00328 10.6616 9.29391C10.1015 9.58453 9.64727 10.0444 9.36357 10.608C9.07988 11.1716 8.98113 11.8104 9.08138 12.4334C9.18163 13.0564 9.47577 13.6319 9.92196 14.0781C10.3682 14.5243 10.9437 14.8184 11.5667 14.9187C12.1897 15.0189 12.8284 14.9202 13.392 14.6365C13.9557 14.3528 14.4155 13.8986 14.7061 13.3385C14.9968 12.7784 15.1034 12.1409 15.0108 11.5167C14.9164 10.88 14.6197 10.2906 14.1646 9.83546C13.7095 9.38032 13.12 9.08364 12.4833 8.98923ZM9.74043 7.51866C10.6739 7.03429 11.7364 6.8566 12.7767 7.01086C13.8379 7.16822 14.8203 7.66269 15.5788 8.42124C16.3374 9.1798 16.8318 10.1622 16.9892 11.2234C17.1435 12.2637 16.9658 13.3261 16.4814 14.2596C15.997 15.1931 15.2306 15.9501 14.2912 16.423C13.3518 16.8958 12.2873 17.0604 11.2489 16.8933C10.2106 16.7262 9.2514 16.236 8.50775 15.4923C7.76409 14.7487 7.27386 13.7895 7.10678 12.7511C6.9397 11.7128 7.10428 10.6482 7.5771 9.70883C8.04993 8.76943 8.80693 8.00304 9.74043 7.51866Z" fill="#351808"/>
<path fill-rule="evenodd" clip-rule="evenodd" d="M16.5 6.49998C16.5 5.9477 16.9477 5.49998 17.5 5.49998H17.51C18.0623 5.49998 18.51 5.9477 18.51 6.49998C18.51 7.05227 18.0623 7.49998 17.51 7.49998H17.5C16.9477 7.49998 16.5 7.05227 16.5 6.49998Z" fill="#351808"/>
</svg>
