<?xml version="1.0" standalone="no"?>
                    <!DOCTYPE svg PUBLIC "-//W3C//DTD SVG 20010904//EN"
                    "http://www.w3.org/TR/2001/REC-SVG-20010904/DTD/svg10.dtd">
                    <svg version="1.0" xmlns="http://www.w3.org/2000/svg"
                    width="7rem" height="7rem" viewBox="0 0 452.000000 452.000000"
                    preserveAspectRatio="xMidYMid meet">
    
                    <g transform="translate(0.000000,452.000000) scale(0.100000,-0.100000)"
                    fill="#EDEDED" stroke="none">
                    <path d="M2135 3504 c-25 -6 -44 -14 -117 -48 -31 -14 -60 -26 -64 -26 -4 0
                    -17 -11 -30 -25 -13 -14 -27 -25 -32 -25 -8 0 -63 -57 -105 -110 -17 -21 -67
                    -127 -67 -143 0 -7 -6 -19 -12 -25 -17 -17 -18 -283 -1 -303 6 -8 16 -34 23
                    -58 15 -55 63 -132 120 -190 48 -49 97 -91 106 -91 5 0 47 -19 143 -64 32 -15
                    290 -15 322 0 96 45 138 64 143 64 9 0 58 42 106 91 52 53 106 136 116 176 3
                    15 14 39 23 53 21 32 24 301 4 322 -7 6 -13 18 -13 25 0 21 -60 143 -71 143
                    -5 0 -9 6 -9 13 0 17 -138 147 -156 147 -3 0 -18 9 -33 19 -15 11 -40 23 -57
                    27 -16 4 -32 12 -36 17 -7 11 -266 20 -303 11z m107 -234 c13 -20 13 -20 29 1
                    13 18 19 20 37 10 l22 -11 -22 -45 c-21 -44 -22 -47 -5 -78 60 -116 237 -484
                    237 -495 0 -10 -24 -12 -102 -10 l-102 3 -35 72 c-20 40 -38 73 -41 73 -3 0
                    -21 -33 -41 -73 l-35 -72 -102 -3 c-71 -2 -102 1 -102 9 0 6 22 57 49 112 27
                    56 83 173 125 260 l76 158 -21 40 c-16 32 -18 44 -8 55 16 19 27 18 41 -6z"/>
                    <path d="M2247 3098 c-3 -7 -12 -29 -21 -50 l-15 -36 76 -154 c43 -84 82 -156
                    88 -160 14 -10 73 -10 79 0 5 8 -189 412 -198 412 -2 0 -6 -6 -9 -12z"/>
                    <path d="M2126 2837 c-31 -65 -56 -124 -56 -132 0 -16 56 -21 75 -7 6 4 27 42
                    47 84 l38 77 -24 48 -25 48 -55 -118z"/>
                    <path d="M1253 3209 c-6 -8 -14 -30 -18 -51 -5 -24 -13 -38 -26 -41 -25 -7
                    -35 -35 -21 -58 16 -25 15 -44 -3 -59 -9 -7 -13 -21 -10 -31 4 -12 -1 -22 -15
                    -29 -25 -13 -26 -40 -1 -40 10 0 24 -7 31 -15 11 -13 7 -15 -24 -15 -36 0 -49
                    -16 -21 -26 8 -4 15 -12 15 -20 0 -8 10 -15 23 -15 21 -1 21 -2 -3 -9 -63 -18
                    -70 -23 -70 -46 0 -15 6 -24 16 -24 23 0 11 -24 -14 -28 -29 -4 -28 -23 3 -52
                    14 -13 24 -31 23 -39 -2 -13 8 -17 50 -19 l52 -3 0 -42 c0 -23 -7 -55 -15 -71
                    -8 -15 -15 -30 -15 -32 0 -2 23 -4 50 -4 47 0 63 11 39 26 -6 3 -9 15 -6 25 3
                    10 1 22 -4 25 -5 3 -9 20 -9 38 0 32 2 34 45 39 74 11 102 57 41 68 -27 5 -31
                    25 -6 32 24 6 27 37 3 37 -14 0 -14 2 2 20 15 16 16 22 5 35 -11 13 -15 13
                    -21 3 -7 -10 -11 -10 -21 0 -11 11 -7 19 21 43 33 30 33 31 12 45 -16 11 -19
                    22 -15 40 4 17 1 26 -10 30 -15 6 -15 9 5 30 27 29 19 42 -23 37 -19 -3 -28
                    -1 -22 4 6 4 15 22 18 39 5 24 3 33 -9 38 -10 3 -16 15 -14 28 1 13 -3 34 -8
                    48 -6 14 -12 31 -14 39 -4 11 -6 11 -16 0z"/>
                    <path d="M3060 3177 c0 -8 -5 -17 -11 -19 -5 -2 -13 -24 -16 -48 -3 -25 -12
                    -48 -19 -53 -7 -4 -11 -14 -8 -22 4 -8 2 -15 -4 -15 -5 0 -10 -16 -10 -36 0
                    -27 5 -38 19 -41 30 -8 22 -23 -11 -23 -30 0 -42 -22 -19 -35 7 -5 5 -13 -6
                    -25 -14 -15 -14 -18 0 -30 8 -7 15 -21 15 -31 0 -15 7 -19 35 -19 32 0 35 -2
                    35 -29 0 -17 -4 -33 -10 -36 -20 -12 -9 -25 20 -25 23 0 30 4 30 20 0 11 -4
                    20 -10 20 -5 0 -10 11 -10 25 0 16 6 25 15 25 8 0 15 5 15 10 0 6 9 10 20 10
                    22 0 27 19 9 37 -6 6 -8 17 -3 24 15 25 11 52 -8 57 -21 5 -24 18 -4 25 18 7
                    17 77 -1 77 -19 0 -16 17 5 25 15 6 16 7 1 16 -10 5 -20 28 -23 53 -7 43 -46
                    98 -46 63z"/>
                    <path d="M3304 3064 c-18 -56 -28 -74 -40 -74 -17 0 -19 -41 -3 -57 9 -9 7
                    -16 -5 -28 -10 -10 -14 -25 -11 -36 5 -14 0 -21 -17 -28 -23 -8 -23 -8 9 -28
                    37 -22 34 -33 -10 -33 -29 0 -30 0 -12 -20 10 -11 28 -21 39 -21 20 -1 20 -2
                    1 -6 -11 -3 -24 -9 -29 -14 -6 -5 -19 -9 -30 -10 -12 0 -15 -3 -8 -6 18 -7 15
                    -50 -5 -62 -17 -10 -16 -13 10 -36 15 -13 26 -30 25 -37 -2 -8 12 -15 37 -18
                    37 -5 40 -8 43 -39 2 -18 -1 -38 -7 -44 -6 -6 -11 -19 -11 -29 0 -14 8 -18 35
                    -18 27 0 35 4 35 18 0 10 -3 22 -7 25 -3 4 -6 24 -6 44 0 34 2 37 39 48 32 9
                    39 15 39 35 0 18 -5 25 -17 24 -23 -2 -23 5 4 33 18 20 19 23 5 23 -22 0 -22
                    16 1 26 14 6 11 8 -13 13 -38 8 -39 32 -2 49 26 13 27 15 13 31 -9 10 -16 25
                    -16 33 0 9 -7 21 -16 29 -14 11 -14 13 0 21 20 11 21 38 2 38 -9 0 -16 19 -20
                    60 -4 33 -11 62 -17 65 -5 4 -7 10 -4 15 3 4 -2 13 -10 20 -12 10 -16 9 -21
                    -6z"/>
                    <path d="M904 2899 c-6 -8 -14 -31 -17 -53 -3 -21 -14 -47 -23 -57 -9 -10 -13
                    -22 -9 -28 3 -6 2 -27 -4 -47 -7 -26 -7 -41 2 -56 10 -16 9 -21 -6 -29 -14 -8
                    -16 -14 -6 -25 9 -11 8 -14 -6 -14 -17 0 -17 -1 -1 -19 15 -16 15 -19 1 -24
                    -25 -10 -17 -25 21 -43 36 -17 36 -18 31 -66 l-6 -48 30 0 c24 0 29 4 25 18
                    -2 9 -7 32 -11 50 -6 31 -6 32 27 32 26 0 36 6 51 31 22 39 22 49 -2 49 -11 0
                    -23 5 -26 10 -3 6 1 10 9 10 9 0 16 9 16 20 0 13 -7 20 -20 20 -11 0 -20 3
                    -20 8 0 4 9 13 20 20 23 14 27 34 6 26 -8 -3 -17 -1 -21 5 -3 6 1 11 9 11 9 0
                    16 7 16 15 0 8 -6 15 -13 15 -8 0 -14 8 -14 18 1 64 -4 92 -16 92 -8 0 -18 17
                    -23 37 -7 29 -11 34 -20 22z"/>
                    <path d="M3600 2775 c-6 -14 -10 -36 -10 -49 0 -12 -4 -26 -9 -31 -14 -16 -29
                    -71 -22 -82 3 -6 13 -13 21 -16 10 -4 8 -6 -7 -6 -13 -1 -24 -7 -25 -13 -9
                    -75 -1 -98 34 -98 17 0 20 -5 16 -34 -3 -29 0 -35 18 -39 20 -3 21 0 17 32 -5
                    33 -2 37 29 49 30 12 31 14 16 26 -12 8 -14 16 -7 23 6 6 6 19 0 35 -6 16 -6
                    29 0 35 6 6 6 20 -1 38 -6 16 -9 34 -6 42 3 7 -1 13 -9 13 -9 0 -16 16 -21 45
                    -8 54 -20 66 -34 30z"/>
                    <path d="M1944 2339 c-11 -19 25 -40 48 -28 11 6 17 16 15 22 -5 16 -53 21
                    -63 6z"/>
                    <path d="M2804 2327 c-2 -7 -3 -67 -2 -133 3 -117 3 -119 27 -122 13 -2 28 1
                    33 6 6 6 20 6 40 -2 26 -10 32 -8 49 13 14 18 19 39 19 91 0 83 -18 106 -75
                    96 -35 -7 -35 -7 -35 29 0 31 -3 35 -25 35 -14 0 -28 -6 -31 -13z m107 -111
                    c12 -27 5 -91 -12 -102 -20 -12 -39 18 -39 66 0 25 3 50 7 53 13 14 34 6 44
                    -17z"/>
                    <path d="M760 2253 c-18 -23 -21 -38 -18 -85 5 -71 26 -98 78 -98 34 0 80 28
                    80 49 0 16 -44 21 -53 6 -11 -20 -33 -19 -41 1 -3 9 -6 35 -6 59 0 50 20 74
                    43 51 14 -14 57 -12 57 4 0 19 -40 40 -78 40 -32 0 -45 -6 -62 -27z"/>
                    <path d="M1004 2255 c-24 -36 -16 -149 11 -170 26 -19 44 -19 67 2 17 15 18
                    15 18 0 0 -12 9 -17 30 -17 l30 0 0 105 0 105 -30 0 c-22 0 -30 -5 -30 -17 -1
                    -17 -1 -17 -14 0 -20 26 -62 22 -82 -8z m97 -42 c11 -30 4 -89 -12 -99 -20
                    -12 -39 18 -39 66 0 25 3 50 7 53 14 15 34 6 44 -20z"/>
                    <path d="M1280 2174 l0 -105 28 3 c27 3 27 4 30 81 2 59 7 79 18 84 25 9 34
                    -16 34 -95 l0 -73 28 3 c27 3 27 4 30 86 2 73 5 82 22 82 17 0 20 -9 22 -82 3
                    -82 3 -83 31 -86 l27 -3 0 90 c0 49 -3 96 -6 105 -7 19 -64 22 -82 4 -9 -9
                    -15 -9 -24 0 -7 7 -24 12 -38 12 -14 0 -31 -5 -38 -12 -9 -9 -15 -9 -24 0 -7
                    7 -22 12 -35 12 -23 0 -23 -2 -23 -106z"/>
                    <path d="M1664 2267 c-2 -7 -3 -69 -2 -138 l3 -124 30 0 c29 0 30 1 27 41 -4
                    46 9 62 28 39 17 -21 44 -19 65 5 24 26 31 124 13 160 -15 29 -61 39 -85 18
                    -13 -10 -17 -10 -20 0 -6 16 -52 16 -59 -1z m110 -43 c11 -28 6 -80 -9 -100
                    -15 -19 -15 -19 -30 0 -27 36 -17 116 15 116 10 0 21 -7 24 -16z"/>
                    <path d="M1950 2174 l0 -105 28 3 27 3 3 103 3 102 -31 0 -30 0 0 -106z"/>
                    <path d="M2120 2174 l0 -104 30 0 30 0 0 69 c0 82 6 101 31 101 16 0 19 -10
                    21 -82 3 -82 3 -83 31 -86 l27 -3 0 94 c0 64 -4 98 -12 105 -7 5 -46 10 -85
                    10 l-73 0 0 -104z"/>
                    <path d="M2415 2260 c-24 -27 -21 -144 5 -170 21 -21 55 -26 65 -10 10 16 25
                    11 25 -9 0 -28 -23 -42 -57 -35 -19 4 -33 1 -38 -6 -11 -18 14 -30 63 -30 32
                    0 49 6 67 25 24 23 25 30 25 139 l0 114 -70 0 c-52 -1 -73 -5 -85 -18z m90
                    -85 c0 -53 -2 -60 -20 -60 -17 0 -20 8 -23 49 -4 60 3 79 25 74 15 -3 18 -14
                    18 -63z"/>
                    <path d="M3095 2256 c-18 -28 -22 -108 -6 -148 13 -35 54 -47 80 -24 16 15 19
                    15 24 1 4 -8 18 -15 32 -15 l25 0 0 105 0 105 -29 0 c-16 0 -31 -6 -34 -12 -4
                    -10 -7 -10 -18 0 -21 20 -57 14 -74 -12z m96 -50 c15 -54 -11 -110 -42 -90
                    -11 6 -12 107 -2 118 14 14 37 0 44 -28z"/>
                    <path d="M3376 2261 c-27 -30 -16 -62 32 -94 23 -16 42 -35 42 -43 0 -16 -31
                    -19 -46 -4 -7 7 -17 5 -30 -4 -19 -15 -19 -15 1 -30 29 -22 87 -20 113 4 39
                    36 27 69 -40 109 -21 13 -38 27 -38 32 0 16 29 22 44 10 13 -11 46 -5 46 8 0
                    34 -96 43 -124 12z"/>
                    <path d="M3642 2273 c-20 -8 -42 -59 -42 -98 0 -40 14 -73 39 -92 36 -28 131
                    -5 131 31 0 19 -37 26 -51 10 -15 -19 -45 -18 -53 2 -15 38 -8 44 54 44 59 0
                    60 0 60 29 0 15 -9 40 -21 55 -16 21 -28 26 -62 25 -23 0 -48 -3 -55 -6z m72
                    -39 c21 -21 12 -34 -25 -34 -30 0 -38 17 -17 38 16 16 23 15 42 -4z"/>
                    <path d="M3710 1853 c0 -5 34 -96 76 -203 42 -107 80 -207 86 -222 8 -23 1
                    -49 -47 -170 -32 -79 -65 -161 -75 -183 -9 -22 -20 -47 -23 -55 -3 -8 -12 -32
                    -21 -52 l-16 -38 107 0 108 0 29 78 c16 42 32 82 36 87 3 6 17 38 30 73 14 34
                    29 62 35 62 5 0 37 -68 69 -150 l59 -150 108 0 c60 0 109 2 109 5 0 3 -40 106
                    -90 228 -49 123 -90 230 -90 238 0 14 122 333 155 407 8 18 15 37 15 43 0 6
                    -40 9 -107 7 l-106 -3 -24 -65 c-13 -36 -30 -78 -37 -95 -7 -16 -21 -51 -31
                    -77 -17 -47 -32 -60 -39 -35 -4 13 -72 205 -88 250 l-10 27 -109 0 c-60 0
                    -109 -3 -109 -7z"/>
                    <path d="M137 1843 c-4 -3 -7 -208 -7 -455 l0 -448 100 0 100 0 0 190 0 190
                    89 0 c55 0 92 4 97 11 11 19 42 148 36 153 -3 4 -54 6 -114 6 l-108 0 0 110 0
                    110 125 0 125 0 0 70 0 70 -218 0 c-120 0 -222 -3 -225 -7z"/>
                    <path d="M1191 1513 l0 -338 32 -115 32 -115 48 -3 47 -3 0 265 c0 147 4 266
                    9 266 4 0 21 -28 36 -62 15 -35 45 -100 66 -145 l39 -83 68 0 67 0 75 148 75
                    147 3 -267 2 -268 80 0 80 0 0 455 0 455 -85 0 c-79 0 -86 -2 -94 -22 -5 -13
                    -32 -72 -61 -133 -29 -60 -72 -153 -97 -205 l-45 -95 -20 45 c-12 25 -27 59
                    -34 75 -7 17 -42 98 -77 180 l-64 150 -92 3 -91 3 1 -338z"/>
                    <path d="M2037 1843 c-4 -3 -7 -208 -7 -455 l0 -448 100 0 100 0 0 455 0 455
                    -93 0 c-52 0 -97 -3 -100 -7z"/>
                    <path d="M2300 1395 l0 -455 190 0 190 0 0 70 0 70 -84 0 c-69 0 -85 3 -90 16
                    -4 9 -6 182 -6 383 l1 366 -101 3 -100 3 0 -456z"/>
                    <path d="M2757 1843 c-4 -3 -7 -208 -7 -455 l0 -448 75 0 74 0 15 53 c8 28 20
                    70 25 92 7 24 11 181 11 403 l0 362 -93 0 c-52 0 -97 -3 -100 -7z"/>
                    <path d="M723 1828 c-6 -7 -13 -24 -16 -38 -2 -14 -24 -92 -47 -175 -23 -82
                    -48 -172 -55 -200 -7 -27 -32 -117 -55 -200 -23 -82 -46 -168 -51 -190 -6 -22
                    -12 -48 -15 -58 -5 -16 2 -17 97 -15 l102 3 16 65 17 65 111 3 111 3 12 -58
                    c6 -32 13 -64 15 -70 3 -9 34 -13 110 -13 l107 0 -7 28 c-3 15 -56 214 -118
                    442 l-112 415 -106 3 c-77 2 -109 -1 -116 -10z m126 -255 c6 -43 22 -135 34
                    -204 13 -70 21 -131 20 -135 -3 -9 -140 -10 -149 -1 -4 4 35 258 57 365 6 28
                    14 52 18 52 4 0 13 -35 20 -77z"/>
                    <path d="M3206 1823 c-3 -10 -24 -85 -46 -168 -23 -82 -66 -240 -97 -350 -62
                    -226 -82 -300 -90 -333 -5 -23 -5 -23 97 -20 l103 3 16 65 16 65 112 3 111 3
                    12 -58 c17 -87 15 -85 62 -81 43 3 43 4 80 78 20 41 37 86 37 100 0 14 -42
                    178 -92 365 l-92 340 -112 3 c-100 2 -112 1 -117 -15z m153 -378 c17 -104 31
                    -196 31 -202 0 -9 -22 -13 -75 -13 -52 0 -75 4 -75 12 0 13 57 347 66 387 10
                    45 21 5 53 -184z"/>
                    </g>
                    </svg>