<svg width="24" height="24" viewBox="0 0 24 24" fill="none" xmlns="http://www.w3.org/2000/svg">
<g clip-path="url(#clip0_1736_243)">
<path fill-rule="evenodd" clip-rule="evenodd" d="M11.9999 3.00002C12 3.00002 12 3.00002 12 4.00002L12 5.00002L11.9245 5.00013C11.8745 5.00024 11.8006 5.00046 11.7057 5.0009C11.516 5.00179 11.2425 5.00358 10.9088 5.00715C10.2411 5.01429 9.334 5.02857 8.37473 5.05707C7.41385 5.08563 6.40863 5.12823 5.54214 5.19143C4.65403 5.25621 3.99414 5.33762 3.66537 5.42421C3.36667 5.51001 3.0956 5.67254 2.87916 5.89568C2.66803 6.11334 2.51612 6.38121 2.43763 6.67377C2.13809 8.34738 1.99161 10.0448 2.00001 11.7451L2.00007 11.7563C1.98935 13.4635 2.13473 15.1681 2.4345 16.8487C2.52112 17.1264 2.67455 17.3788 2.8816 17.5837C3.09851 17.7984 3.36696 17.9537 3.66116 18.0347C3.98848 18.1217 4.65022 18.2035 5.54214 18.2686C6.40863 18.3318 7.41385 18.3744 8.37473 18.403C9.334 18.4315 10.2411 18.4457 10.9088 18.4529C11.2425 18.4565 11.516 18.4582 11.7057 18.4591C11.8006 18.4596 11.8745 18.4598 11.9245 18.4599H12.0755C12.1255 18.4598 12.1994 18.4596 12.2943 18.4591C12.4841 18.4582 12.7575 18.4565 13.0912 18.4529C13.759 18.4457 14.666 18.4315 15.6253 18.403C16.5862 18.3744 17.5914 18.3318 18.4579 18.2686C19.346 18.2038 20.0059 18.1224 20.3347 18.0358C20.6334 17.95 20.9044 17.7875 21.1209 17.5644C21.332 17.3467 21.4839 17.0788 21.5624 16.7863C21.8596 15.1254 22.0061 13.441 22 11.7536L22 11.7437C22.0108 10.0306 21.8643 8.3201 21.5624 6.63378C21.4839 6.34122 21.332 6.07335 21.1209 5.85568C20.9069 5.6351 20.6396 5.47375 20.3449 5.38719C20.005 5.30721 19.3426 5.23349 18.4642 5.17499C17.596 5.11717 16.5894 5.07823 15.6279 5.05215C14.6679 5.0261 13.7603 5.01306 13.0921 5.00653C12.7583 5.00327 12.4846 5.00164 12.2947 5.00083L12.0757 5.00012L12 5.00002L12 4.00002C12 3.00002 12 3.00002 11.9999 3.00002L12.0797 3.00012C12.1312 3.00022 12.2067 3.00043 12.3033 3.00084C12.4964 3.00167 12.7737 3.00332 13.1117 3.00663C13.7873 3.01322 14.7071 3.02643 15.6821 3.05288C16.6557 3.0793 17.6916 3.11911 18.5971 3.17941C19.4767 3.23799 20.3115 3.32018 20.8372 3.44856C20.849 3.45142 20.8606 3.4545 20.8723 3.45778C21.5123 3.63888 22.0933 3.98568 22.5565 4.46316C23.0196 4.94065 23.3486 5.5319 23.5101 6.17721C23.5155 6.19881 23.5202 6.22059 23.5241 6.2425C23.852 8.06022 24.0113 9.90433 24 11.7513C24.0063 13.5707 23.847 15.3869 23.5242 17.1775C23.5202 17.1994 23.5155 17.2212 23.5101 17.2428C23.3486 17.8881 23.0196 18.4794 22.5565 18.9569C22.0933 19.4344 21.5123 19.7812 20.8723 19.9622L20.8584 19.9661C20.3247 20.1088 19.4827 20.1992 18.6034 20.2633C17.6961 20.3295 16.6589 20.3731 15.6847 20.4021C14.709 20.4311 13.7886 20.4455 13.1126 20.4528C12.7744 20.4564 12.4969 20.4582 12.3037 20.4591C12.2071 20.4596 12.1315 20.4598 12.0799 20.4599L12.0005 20.46L11.9201 20.4599C11.8685 20.4598 11.793 20.4596 11.6963 20.4591C11.5031 20.4582 11.2256 20.4564 10.8875 20.4528C10.2115 20.4455 9.29105 20.4311 8.31532 20.4021C7.34119 20.3731 6.30392 20.3295 5.39665 20.2633C4.51735 20.1992 3.67531 20.1088 3.14166 19.9661L3.1361 19.9646C2.50903 19.793 1.93681 19.4626 1.47473 19.0053C1.01265 18.5479 0.67633 17.9792 0.498264 17.3539C0.489225 17.3222 0.481762 17.29 0.475904 17.2575C0.148065 15.44 -0.0112431 13.5961 7.33562e-06 11.7493C-0.00870692 9.91637 0.150588 8.08645 0.475897 6.28254C0.479851 6.26061 0.484537 6.23882 0.489948 6.21721C0.651466 5.5719 0.980418 4.98065 1.44358 4.50316C1.90674 4.02568 2.4877 3.67888 3.12779 3.49778L3.14166 3.49397C3.67531 3.35125 4.51735 3.26086 5.39665 3.19673C6.30392 3.13055 7.34119 3.0869 8.31532 3.05796C9.29105 3.02896 10.2115 3.01449 10.8875 3.00726C11.2256 3.00364 11.5031 3.00183 11.6963 3.00092C11.793 3.00047 11.8685 3.00024 11.9201 3.00013L11.9999 3.00002Z" fill="#351808"/>
<path fill-rule="evenodd" clip-rule="evenodd" d="M9.24718 7.6156C9.55499 7.43655 9.9348 7.43469 10.2443 7.61073L15.9943 10.8807C16.3069 11.0585 16.5 11.3904 16.5 11.75C16.5 12.1096 16.3069 12.4415 15.9943 12.6193L10.2443 15.8893C9.9348 16.0653 9.55499 16.0634 9.24718 15.8844C8.93937 15.7053 8.75 15.3761 8.75 15.02V8.48C8.75 8.12389 8.93937 7.79466 9.24718 7.6156ZM10.75 10.1991V13.3009L13.4771 11.75L10.75 10.1991Z" fill="#351808"/>
</g>
<defs>
<clipPath id="clip0_1736_243">
<rect width="24" height="24" fill="white"/>
</clipPath>
</defs>
</svg>
